<mxfile host="app.diagrams.net" modified="2022-11-30T16:50:14.190Z" agent="5.0 (X11)" version="20.6.0" etag="39NOBueFoq2Ps2E12i_Z" type="github">
  <diagram id="g0TfEN2IGqB7qXlUZHK_" name="Page-1">
    <mxGraphModel dx="964" dy="462" grid="1" gridSize="10" guides="1" tooltips="1" connect="1" arrows="1" fold="1" page="1" pageScale="1" pageWidth="850" pageHeight="1100" math="0" shadow="0">
      <root>
        <mxCell id="0" />
        <mxCell id="1" parent="0" />
        <mxCell id="568BoCKdEYGyi0PcvxhY-20" value="" style="edgeStyle=orthogonalEdgeStyle;rounded=0;orthogonalLoop=1;jettySize=auto;html=1;" edge="1" parent="1" source="568BoCKdEYGyi0PcvxhY-1" target="568BoCKdEYGyi0PcvxhY-4">
          <mxGeometry relative="1" as="geometry" />
        </mxCell>
        <mxCell id="568BoCKdEYGyi0PcvxhY-1" value="" style="ellipse;whiteSpace=wrap;html=1;aspect=fixed;" vertex="1" parent="1">
          <mxGeometry x="50" y="195" width="30" height="30" as="geometry" />
        </mxCell>
        <mxCell id="568BoCKdEYGyi0PcvxhY-21" value="" style="edgeStyle=orthogonalEdgeStyle;rounded=0;orthogonalLoop=1;jettySize=auto;html=1;" edge="1" parent="1" source="568BoCKdEYGyi0PcvxhY-4" target="568BoCKdEYGyi0PcvxhY-5">
          <mxGeometry relative="1" as="geometry" />
        </mxCell>
        <mxCell id="568BoCKdEYGyi0PcvxhY-4" value="Access Website" style="strokeWidth=2;html=1;shape=mxgraph.flowchart.terminator;whiteSpace=wrap;" vertex="1" parent="1">
          <mxGeometry x="180" y="180" width="100" height="60" as="geometry" />
        </mxCell>
        <mxCell id="568BoCKdEYGyi0PcvxhY-22" value="" style="edgeStyle=orthogonalEdgeStyle;rounded=0;orthogonalLoop=1;jettySize=auto;html=1;" edge="1" parent="1" source="568BoCKdEYGyi0PcvxhY-5" target="568BoCKdEYGyi0PcvxhY-6">
          <mxGeometry relative="1" as="geometry" />
        </mxCell>
        <mxCell id="568BoCKdEYGyi0PcvxhY-23" value="" style="edgeStyle=orthogonalEdgeStyle;rounded=0;orthogonalLoop=1;jettySize=auto;html=1;" edge="1" parent="1" source="568BoCKdEYGyi0PcvxhY-5" target="568BoCKdEYGyi0PcvxhY-7">
          <mxGeometry relative="1" as="geometry" />
        </mxCell>
        <mxCell id="568BoCKdEYGyi0PcvxhY-5" value="Have an account?" style="strokeWidth=2;html=1;shape=mxgraph.flowchart.decision;whiteSpace=wrap;" vertex="1" parent="1">
          <mxGeometry x="370" y="172.5" width="130" height="75" as="geometry" />
        </mxCell>
        <mxCell id="568BoCKdEYGyi0PcvxhY-25" value="" style="edgeStyle=orthogonalEdgeStyle;rounded=0;orthogonalLoop=1;jettySize=auto;html=1;" edge="1" parent="1" source="568BoCKdEYGyi0PcvxhY-6" target="568BoCKdEYGyi0PcvxhY-8">
          <mxGeometry relative="1" as="geometry">
            <Array as="points">
              <mxPoint x="710" y="345" />
            </Array>
          </mxGeometry>
        </mxCell>
        <mxCell id="568BoCKdEYGyi0PcvxhY-6" value="Crete Account Form" style="rounded=1;whiteSpace=wrap;html=1;absoluteArcSize=1;arcSize=14;strokeWidth=2;" vertex="1" parent="1">
          <mxGeometry x="650" y="185" width="120" height="50" as="geometry" />
        </mxCell>
        <mxCell id="568BoCKdEYGyi0PcvxhY-33" value="" style="edgeStyle=orthogonalEdgeStyle;rounded=0;orthogonalLoop=1;jettySize=auto;html=1;" edge="1" parent="1" source="568BoCKdEYGyi0PcvxhY-7" target="568BoCKdEYGyi0PcvxhY-12">
          <mxGeometry relative="1" as="geometry" />
        </mxCell>
        <mxCell id="568BoCKdEYGyi0PcvxhY-7" value="&lt;div&gt;Enter Email and&lt;/div&gt;&lt;div&gt;Password&lt;br&gt;&lt;/div&gt;" style="rounded=1;whiteSpace=wrap;html=1;absoluteArcSize=1;arcSize=14;strokeWidth=2;" vertex="1" parent="1">
          <mxGeometry x="385" y="300" width="100" height="50" as="geometry" />
        </mxCell>
        <mxCell id="568BoCKdEYGyi0PcvxhY-26" value="" style="edgeStyle=orthogonalEdgeStyle;rounded=0;orthogonalLoop=1;jettySize=auto;html=1;" edge="1" parent="1" source="568BoCKdEYGyi0PcvxhY-8" target="568BoCKdEYGyi0PcvxhY-9">
          <mxGeometry relative="1" as="geometry" />
        </mxCell>
        <mxCell id="568BoCKdEYGyi0PcvxhY-8" value="&lt;div&gt;Enter Name,Email,&lt;/div&gt;&lt;div&gt;Password,Gender&lt;br&gt;&lt;/div&gt;" style="rounded=1;whiteSpace=wrap;html=1;absoluteArcSize=1;arcSize=14;strokeWidth=2;" vertex="1" parent="1">
          <mxGeometry x="650" y="300" width="120" height="50" as="geometry" />
        </mxCell>
        <mxCell id="568BoCKdEYGyi0PcvxhY-27" value="" style="edgeStyle=orthogonalEdgeStyle;rounded=0;orthogonalLoop=1;jettySize=auto;html=1;" edge="1" parent="1" source="568BoCKdEYGyi0PcvxhY-9" target="568BoCKdEYGyi0PcvxhY-14">
          <mxGeometry relative="1" as="geometry">
            <Array as="points">
              <mxPoint x="710" y="520" />
              <mxPoint x="710" y="520" />
            </Array>
          </mxGeometry>
        </mxCell>
        <mxCell id="568BoCKdEYGyi0PcvxhY-9" value="Save Data" style="rounded=1;whiteSpace=wrap;html=1;absoluteArcSize=1;arcSize=14;strokeWidth=2;" vertex="1" parent="1">
          <mxGeometry x="650" y="410" width="120" height="40" as="geometry" />
        </mxCell>
        <mxCell id="568BoCKdEYGyi0PcvxhY-34" value="" style="edgeStyle=orthogonalEdgeStyle;rounded=0;orthogonalLoop=1;jettySize=auto;html=1;" edge="1" parent="1" source="568BoCKdEYGyi0PcvxhY-12" target="568BoCKdEYGyi0PcvxhY-13">
          <mxGeometry relative="1" as="geometry" />
        </mxCell>
        <mxCell id="568BoCKdEYGyi0PcvxhY-12" value="Validation" style="rounded=1;whiteSpace=wrap;html=1;absoluteArcSize=1;arcSize=14;strokeWidth=2;" vertex="1" parent="1">
          <mxGeometry x="375" y="410" width="120" height="40" as="geometry" />
        </mxCell>
        <mxCell id="568BoCKdEYGyi0PcvxhY-36" style="edgeStyle=orthogonalEdgeStyle;rounded=0;orthogonalLoop=1;jettySize=auto;html=1;entryX=0;entryY=0.5;entryDx=0;entryDy=0;" edge="1" parent="1" source="568BoCKdEYGyi0PcvxhY-13" target="568BoCKdEYGyi0PcvxhY-7">
          <mxGeometry relative="1" as="geometry">
            <Array as="points">
              <mxPoint x="340" y="575" />
              <mxPoint x="340" y="325" />
            </Array>
          </mxGeometry>
        </mxCell>
        <mxCell id="568BoCKdEYGyi0PcvxhY-45" style="edgeStyle=orthogonalEdgeStyle;rounded=0;orthogonalLoop=1;jettySize=auto;html=1;entryX=0;entryY=0.5;entryDx=0;entryDy=0;" edge="1" parent="1" source="568BoCKdEYGyi0PcvxhY-13" target="568BoCKdEYGyi0PcvxhY-14">
          <mxGeometry relative="1" as="geometry" />
        </mxCell>
        <mxCell id="568BoCKdEYGyi0PcvxhY-13" value="Validate?" style="strokeWidth=2;html=1;shape=mxgraph.flowchart.decision;whiteSpace=wrap;" vertex="1" parent="1">
          <mxGeometry x="390" y="530" width="90" height="90" as="geometry" />
        </mxCell>
        <mxCell id="568BoCKdEYGyi0PcvxhY-48" value="" style="edgeStyle=orthogonalEdgeStyle;rounded=0;orthogonalLoop=1;jettySize=auto;html=1;" edge="1" parent="1" source="568BoCKdEYGyi0PcvxhY-14" target="568BoCKdEYGyi0PcvxhY-15">
          <mxGeometry relative="1" as="geometry" />
        </mxCell>
        <mxCell id="568BoCKdEYGyi0PcvxhY-14" value="Website Home page" style="rounded=1;whiteSpace=wrap;html=1;absoluteArcSize=1;arcSize=14;strokeWidth=2;" vertex="1" parent="1">
          <mxGeometry x="660" y="550" width="100" height="50" as="geometry" />
        </mxCell>
        <mxCell id="568BoCKdEYGyi0PcvxhY-15" value="" style="ellipse;html=1;shape=endState;fillColor=#000000;strokeColor=#ff0000;" vertex="1" parent="1">
          <mxGeometry x="695" y="680" width="30" height="30" as="geometry" />
        </mxCell>
        <mxCell id="568BoCKdEYGyi0PcvxhY-49" value="No" style="text;html=1;align=center;verticalAlign=middle;resizable=0;points=[];autosize=1;strokeColor=none;fillColor=none;" vertex="1" parent="1">
          <mxGeometry x="540" y="175" width="40" height="30" as="geometry" />
        </mxCell>
        <mxCell id="568BoCKdEYGyi0PcvxhY-50" value="Yes" style="text;html=1;align=center;verticalAlign=middle;resizable=0;points=[];autosize=1;strokeColor=none;fillColor=none;" vertex="1" parent="1">
          <mxGeometry x="400" y="255" width="40" height="30" as="geometry" />
        </mxCell>
        <mxCell id="568BoCKdEYGyi0PcvxhY-51" value="Yes" style="text;html=1;align=center;verticalAlign=middle;resizable=0;points=[];autosize=1;strokeColor=none;fillColor=none;" vertex="1" parent="1">
          <mxGeometry x="550" y="555" width="40" height="30" as="geometry" />
        </mxCell>
        <mxCell id="568BoCKdEYGyi0PcvxhY-52" value="No" style="text;html=1;align=center;verticalAlign=middle;resizable=0;points=[];autosize=1;strokeColor=none;fillColor=none;" vertex="1" parent="1">
          <mxGeometry x="350" y="545" width="40" height="30" as="geometry" />
        </mxCell>
      </root>
    </mxGraphModel>
  </diagram>
</mxfile>
